<svg width="186" height="64" viewBox="0 0 186 64" fill="none" xmlns="http://www.w3.org/2000/svg">
<path d="M7 43.6203L11.9989 31.7782M36 58L26.6334 31.7782M26.6334 31.7782L19.9257 13L11.9989 31.7782M26.6334 31.7782H11.9989" stroke="#E4D4AA" stroke-width="5"/>
<path d="M48.1832 39H45.6903L52.9006 19.3636H55.3551L62.5653 39H60.0724L54.2045 22.4702H54.0511L48.1832 39ZM49.1037 31.3295H59.152V33.4389H49.1037V31.3295ZM70.8782 39.3068C69.6509 39.3068 68.5675 38.9968 67.6278 38.3768C66.6882 37.7504 65.9531 36.8683 65.4226 35.7305C64.892 34.5863 64.6268 33.2344 64.6268 31.6747C64.6268 30.1278 64.892 28.7855 65.4226 27.6477C65.9531 26.5099 66.6914 25.631 67.6374 25.011C68.5835 24.391 69.6765 24.081 70.9165 24.081C71.8754 24.081 72.6328 24.2408 73.1889 24.5604C73.7514 24.8736 74.1797 25.2315 74.4737 25.6342C74.7741 26.0305 75.0075 26.3565 75.1737 26.6122H75.3654V19.3636H77.6282V39H75.4421V36.7372H75.1737C75.0075 37.0057 74.771 37.3445 74.4641 37.7536C74.1573 38.1562 73.7195 38.5174 73.1506 38.837C72.5817 39.1502 71.8242 39.3068 70.8782 39.3068ZM71.185 37.2741C72.0927 37.2741 72.8597 37.0376 73.4862 36.5646C74.1126 36.0852 74.5888 35.4237 74.9148 34.5799C75.2408 33.7298 75.4038 32.7486 75.4038 31.6364C75.4038 30.5369 75.244 29.5749 74.9244 28.7504C74.6048 27.9194 74.1317 27.2738 73.5053 26.8136C72.8789 26.3469 72.1055 26.1136 71.185 26.1136C70.2262 26.1136 69.4272 26.3597 68.788 26.8519C68.1552 27.3377 67.679 27.9993 67.3594 28.8366C67.0462 29.6676 66.8896 30.6009 66.8896 31.6364C66.8896 32.6847 67.0494 33.6371 67.369 34.4936C67.695 35.3437 68.1744 36.0213 68.8072 36.5263C69.4464 37.0249 70.239 37.2741 71.185 37.2741ZM83.1989 19.3636L89.0284 35.8935H89.2585L95.0881 19.3636H97.581L90.3707 39H87.9162L80.706 19.3636H83.1989ZM103.295 39.3452C102.362 39.3452 101.515 39.1694 100.755 38.8178C99.994 38.4599 99.3899 37.9453 98.9425 37.2741C98.495 36.5966 98.2713 35.7784 98.2713 34.8196C98.2713 33.9759 98.4375 33.2919 98.7699 32.7678C99.1023 32.2372 99.5465 31.8217 100.103 31.5213C100.659 31.2209 101.272 30.9972 101.944 30.8501C102.621 30.6967 103.302 30.5753 103.986 30.4858C104.881 30.3707 105.606 30.2844 106.162 30.2269C106.725 30.163 107.134 30.0575 107.39 29.9105C107.652 29.7635 107.783 29.5078 107.783 29.1435V29.0668C107.783 28.1207 107.524 27.3857 107.006 26.8615C106.495 26.3374 105.718 26.0753 104.676 26.0753C103.596 26.0753 102.749 26.3118 102.135 26.7848C101.522 27.2578 101.09 27.7628 100.841 28.2997L98.6932 27.5327C99.0767 26.6378 99.5881 25.9411 100.227 25.4425C100.873 24.9375 101.576 24.5859 102.337 24.3878C103.104 24.1832 103.858 24.081 104.599 24.081C105.072 24.081 105.616 24.1385 106.229 24.2536C106.849 24.3622 107.447 24.5891 108.022 24.9343C108.604 25.2795 109.087 25.8004 109.47 26.4972C109.854 27.1939 110.045 28.1271 110.045 29.2969V39H107.783V37.0057H107.668C107.514 37.3253 107.259 37.6673 106.901 38.0316C106.543 38.396 106.066 38.706 105.472 38.9616C104.877 39.2173 104.152 39.3452 103.295 39.3452ZM103.641 37.3125C104.536 37.3125 105.29 37.1367 105.903 36.7852C106.523 36.4336 106.99 35.9798 107.303 35.4237C107.623 34.8675 107.783 34.2827 107.783 33.669V31.598C107.687 31.7131 107.476 31.8185 107.15 31.9144C106.83 32.0039 106.46 32.0838 106.038 32.1541C105.622 32.218 105.216 32.2756 104.82 32.3267C104.43 32.3714 104.114 32.4098 103.871 32.4418C103.283 32.5185 102.733 32.6431 102.222 32.8157C101.717 32.9819 101.308 33.2344 100.994 33.5732C100.688 33.9055 100.534 34.3594 100.534 34.9347C100.534 35.7209 100.825 36.3153 101.407 36.718C101.995 37.1143 102.739 37.3125 103.641 37.3125ZM116.438 30.1406V39H114.176V24.2727H116.362V26.5739H116.553C116.899 25.826 117.423 25.2251 118.126 24.7713C118.829 24.3111 119.737 24.081 120.849 24.081C121.846 24.081 122.718 24.2855 123.466 24.6946C124.214 25.0973 124.796 25.7109 125.211 26.5355C125.627 27.3537 125.835 28.3892 125.835 29.642V39H123.572V29.7955C123.572 28.6385 123.271 27.7372 122.671 27.0916C122.07 26.4396 121.245 26.1136 120.197 26.1136C119.475 26.1136 118.829 26.2702 118.26 26.5835C117.698 26.8967 117.253 27.3537 116.927 27.9545C116.601 28.5554 116.438 29.2841 116.438 30.1406ZM136.374 24.2727V26.1903H128.742V24.2727H136.374ZM130.967 20.7443H133.229V34.7812C133.229 35.4205 133.322 35.8999 133.507 36.2195C133.699 36.5327 133.942 36.7436 134.236 36.8523C134.537 36.9545 134.853 37.0057 135.185 37.0057C135.435 37.0057 135.639 36.9929 135.799 36.9673C135.959 36.9354 136.087 36.9098 136.183 36.8906L136.643 38.9233C136.489 38.9808 136.275 39.0384 136 39.0959C135.725 39.1598 135.377 39.1918 134.955 39.1918C134.316 39.1918 133.69 39.0543 133.076 38.7795C132.469 38.5046 131.964 38.0859 131.561 37.5234C131.165 36.9609 130.967 36.2514 130.967 35.3949V20.7443ZM144.112 39.3452C143.179 39.3452 142.332 39.1694 141.571 38.8178C140.81 38.4599 140.206 37.9453 139.759 37.2741C139.311 36.5966 139.088 35.7784 139.088 34.8196C139.088 33.9759 139.254 33.2919 139.586 32.7678C139.919 32.2372 140.363 31.8217 140.919 31.5213C141.475 31.2209 142.089 30.9972 142.76 30.8501C143.438 30.6967 144.118 30.5753 144.802 30.4858C145.697 30.3707 146.423 30.2844 146.979 30.2269C147.541 30.163 147.95 30.0575 148.206 29.9105C148.468 29.7635 148.599 29.5078 148.599 29.1435V29.0668C148.599 28.1207 148.34 27.3857 147.822 26.8615C147.311 26.3374 146.534 26.0753 145.493 26.0753C144.412 26.0753 143.565 26.3118 142.952 26.7848C142.338 27.2578 141.907 27.7628 141.657 28.2997L139.51 27.5327C139.893 26.6378 140.404 25.9411 141.044 25.4425C141.689 24.9375 142.392 24.5859 143.153 24.3878C143.92 24.1832 144.674 24.081 145.416 24.081C145.889 24.081 146.432 24.1385 147.046 24.2536C147.666 24.3622 148.263 24.5891 148.839 24.9343C149.42 25.2795 149.903 25.8004 150.287 26.4972C150.67 27.1939 150.862 28.1271 150.862 29.2969V39H148.599V37.0057H148.484C148.331 37.3253 148.075 37.6673 147.717 38.0316C147.359 38.396 146.883 38.706 146.288 38.9616C145.694 39.2173 144.968 39.3452 144.112 39.3452ZM144.457 37.3125C145.352 37.3125 146.106 37.1367 146.72 36.7852C147.34 36.4336 147.806 35.9798 148.12 35.4237C148.439 34.8675 148.599 34.2827 148.599 33.669V31.598C148.503 31.7131 148.292 31.8185 147.966 31.9144C147.647 32.0039 147.276 32.0838 146.854 32.1541C146.439 32.218 146.033 32.2756 145.636 32.3267C145.246 32.3714 144.93 32.4098 144.687 32.4418C144.099 32.5185 143.549 32.6431 143.038 32.8157C142.533 32.9819 142.124 33.2344 141.811 33.5732C141.504 33.9055 141.35 34.3594 141.35 34.9347C141.35 35.7209 141.641 36.3153 142.223 36.718C142.811 37.1143 143.556 37.3125 144.457 37.3125ZM160.937 44.8295C159.843 44.8295 158.904 44.6889 158.118 44.4077C157.331 44.1328 156.676 43.7685 156.152 43.3146C155.634 42.8672 155.222 42.3878 154.915 41.8764L156.718 40.6108C156.922 40.8793 157.181 41.1861 157.494 41.5312C157.808 41.8828 158.236 42.1864 158.779 42.4421C159.329 42.7042 160.048 42.8352 160.937 42.8352C162.125 42.8352 163.107 42.5476 163.88 41.9723C164.653 41.397 165.04 40.4957 165.04 39.2685V36.277H164.848C164.682 36.5455 164.446 36.8778 164.139 37.2741C163.839 37.6641 163.404 38.0124 162.835 38.3192C162.272 38.6197 161.512 38.7699 160.553 38.7699C159.364 38.7699 158.297 38.4886 157.351 37.9261C156.411 37.3636 155.666 36.5455 155.117 35.4716C154.573 34.3977 154.302 33.0937 154.302 31.5597C154.302 30.0511 154.567 28.7376 155.097 27.619C155.628 26.494 156.366 25.6246 157.312 25.011C158.258 24.391 159.351 24.081 160.591 24.081C161.55 24.081 162.311 24.2408 162.873 24.5604C163.442 24.8736 163.877 25.2315 164.177 25.6342C164.484 26.0305 164.721 26.3565 164.887 26.6122H165.117V24.2727H167.303V39.4219C167.303 40.6875 167.015 41.7166 166.44 42.5092C165.871 43.3082 165.104 43.8931 164.139 44.2638C163.18 44.641 162.113 44.8295 160.937 44.8295ZM160.86 36.7372C161.767 36.7372 162.535 36.5295 163.161 36.114C163.787 35.6985 164.264 35.1009 164.59 34.321C164.916 33.5412 165.079 32.608 165.079 31.5213C165.079 30.4602 164.919 29.5238 164.599 28.712C164.28 27.9002 163.807 27.2642 163.18 26.804C162.554 26.3437 161.78 26.1136 160.86 26.1136C159.901 26.1136 159.102 26.3565 158.463 26.8423C157.83 27.3281 157.354 27.9801 157.034 28.7983C156.721 29.6165 156.564 30.5241 156.564 31.5213C156.564 32.544 156.724 33.4485 157.044 34.2347C157.37 35.0146 157.849 35.6282 158.482 36.0756C159.121 36.5167 159.914 36.7372 160.86 36.7372ZM177.62 39.3068C176.201 39.3068 174.977 38.9936 173.948 38.3672C172.925 37.7344 172.135 36.8523 171.579 35.7209C171.03 34.5831 170.755 33.2599 170.755 31.7514C170.755 30.2429 171.03 28.9134 171.579 27.7628C172.135 26.6058 172.909 25.7045 173.9 25.0589C174.897 24.407 176.06 24.081 177.39 24.081C178.157 24.081 178.914 24.2088 179.662 24.4645C180.41 24.7202 181.091 25.1357 181.704 25.7109C182.318 26.2798 182.807 27.0341 183.171 27.9737C183.536 28.9134 183.718 30.0703 183.718 31.4446V32.4034H172.366V30.4474H181.417C181.417 29.6165 181.25 28.875 180.918 28.223C180.592 27.571 180.125 27.0565 179.518 26.6793C178.917 26.3022 178.208 26.1136 177.39 26.1136C176.488 26.1136 175.709 26.3374 175.05 26.7848C174.398 27.2259 173.896 27.8011 173.545 28.5107C173.193 29.2202 173.017 29.9808 173.017 30.7926V32.0966C173.017 33.2088 173.209 34.1516 173.593 34.9251C173.983 35.6921 174.523 36.277 175.213 36.6797C175.903 37.076 176.706 37.2741 177.62 37.2741C178.214 37.2741 178.751 37.1911 179.231 37.0249C179.716 36.8523 180.135 36.5966 180.487 36.2578C180.838 35.9126 181.11 35.4844 181.302 34.973L183.488 35.5866C183.258 36.3281 182.871 36.9801 182.328 37.5426C181.784 38.0987 181.113 38.5334 180.314 38.8466C179.515 39.1534 178.617 39.3068 177.62 39.3068Z" fill="#E4D4AA"/>
</svg>
